HIERARCHY
ROOT Hips
{
 OFFSET 0.000000 0.000000 0.000000
 CHANNELS 6 Xposition Yposition Zposition Yrotation Xrotation Zrotation
 JOINT Chest
 {
  OFFSET 0.000000 9.585900 0.002600
  CHANNELS 3 Yrotation Xrotation Zrotation
  JOINT Chest2
  {
   OFFSET 0.000000 9.601200 -0.005300
   CHANNELS 3 Yrotation Xrotation Zrotation
   JOINT Chest3
   {
    OFFSET 0.000000 9.561800 0.000000
    CHANNELS 3 Yrotation Xrotation Zrotation
    JOINT Chest4
    {
     OFFSET 0.000000 9.552100 0.000000
     CHANNELS 3 Yrotation Xrotation Zrotation
     JOINT Neck
     {
      OFFSET 0.000000 14.453000 0.000000
      CHANNELS 3 Yrotation Xrotation Zrotation
      JOINT Head
      {
       OFFSET 0.000000 8.936500 -0.011300
       CHANNELS 3 Yrotation Xrotation Zrotation
       End Site
       {
        OFFSET 0.000000 17.073600 -0.006000
       }
      }
     }
     JOINT RightCollar
     {
      OFFSET -2.921100 9.558500 0.000000
      CHANNELS 3 Yrotation Xrotation Zrotation
      JOINT RightShoulder
      {
       OFFSET -13.519700 0.000000 0.000000
       CHANNELS 3 Yrotation Xrotation Zrotation
       JOINT RightElbow
       {
        OFFSET 0.000000 -29.696600 0.000000
        CHANNELS 3 Yrotation Xrotation Zrotation
        JOINT RightWrist
        {
         OFFSET 0.000000 -24.004700 0.000000
         CHANNELS 3 Yrotation Xrotation Zrotation
         End Site
         {
          OFFSET 0.000000 -17.728500 0.000000
         }
        }
       }
      }
     }
     JOINT LeftCollar
     {
      OFFSET 2.921100 9.558500 0.000000
      CHANNELS 3 Yrotation Xrotation Zrotation
      JOINT LeftShoulder
      {
       OFFSET 13.519700 0.000000 0.000000
       CHANNELS 3 Yrotation Xrotation Zrotation
       JOINT LeftElbow
       {
        OFFSET 0.000000 -29.696600 0.000000
        CHANNELS 3 Yrotation Xrotation Zrotation
        JOINT LeftWrist
        {
         OFFSET 0.000000 -24.004700 0.000000
         CHANNELS 3 Yrotation Xrotation Zrotation
         End Site
         {
          OFFSET 0.000000 -17.728500 0.000000
         }
        }
       }
      }
     }
    }
   }
  }
 }
 JOINT RightHip
 {
  OFFSET -7.771700 -0.012900 -0.001300
  CHANNELS 3 Yrotation Xrotation Zrotation
  JOINT RightKnee
  {
   OFFSET 0.000000 -40.869800 0.001200
   CHANNELS 3 Yrotation Xrotation Zrotation
   JOINT RightAnkle
   {
    OFFSET 0.000000 -39.717900 0.002100
    CHANNELS 3 Yrotation Xrotation Zrotation
    JOINT RightToe
    {
     OFFSET 0.000000 -4.965400 11.033500
     CHANNELS 3 Yrotation Xrotation Zrotation
     End Site
     {
      OFFSET 0.000000 -1.423100 5.872300
     }
    }
   }
  }
 }
 JOINT LeftHip
 {
  OFFSET 7.771700 -0.012900 -0.001300
  CHANNELS 3 Yrotation Xrotation Zrotation
  JOINT LeftKnee
  {
   OFFSET 0.000000 -40.869800 0.001200
   CHANNELS 3 Yrotation Xrotation Zrotation
   JOINT LeftAnkle
   {
    OFFSET 0.000000 -39.717900 0.002100
    CHANNELS 3 Yrotation Xrotation Zrotation
    JOINT LeftToe
    {
     OFFSET 0.000000 -4.965400 11.033500
     CHANNELS 3 Yrotation Xrotation Zrotation
     End Site
     {
      OFFSET 0.000000 -1.423100 5.872300
     }
    }
   }
  }
 }
}
MOTION
Frames: 11
Frame Time: 0.008333
0.000000 85.388000 0.000000 0.000000 -5.767877 0.000000 0.000000 11.653817 0.000000 0.000000 -5.885947 0.000000 0.000000 -0.000000 0.000000 0.000000 -0.000000 0.000000 0.000000 12.528835 0.000000 0.000000 0.711642 0.000000 0.000000 -0.000000 0.000000 0.000000 0.000000 -90.000000 0.000000 -2.309062 0.000000 0.000000 2.309062 0.000000 0.000000 -0.000000 0.000000 0.000000 -0.000000 90.000000 0.000000 -2.309062 0.000000 0.000000 2.309062 0.000000 0.000000 8.520406 0.000000 0.000000 1.905762 0.000000 -0.000000 -4.658285 0.000000 0.000000 -0.000000 0.000000 0.000000 8.520406 0.000000 0.000000 1.905762 0.000000 -0.000000 -4.658285 0.000000 0.000000 -0.000000 0.000000
-211.259306 57.616959 -69.809824 159.372846 -8.900667 1.059859 4.059340 6.545900 0.738617 0.164693 0.278127 -0.010057 0.295242 0.533870 -0.005079 3.522562 6.206901 0.061362 0.533696 16.503509 -1.484266 1.499915 -5.290753 -3.022101 1.504272 6.809739 0.914535 -5.533442 -7.264521 -8.668854 -130.361781 -84.302229 155.619996 -1.357876 6.775122 -30.517985 -4.712171 7.291966 -2.299245 17.821337 -5.279116 2.288493 82.774764 -75.643763 -113.670880 -0.900417 7.732968 13.810466 -10.234099 -63.353918 5.014683 -35.036336 71.841431 -36.865893 -4.996779 -6.914277 0.011609 -0.324317 0.761862 -0.157962 2.341523 -65.433248 14.267208 40.497972 66.037477 33.594529 -18.412357 -9.333955 4.049940 -0.150226 -0.953752 -0.100173
-211.252561 57.614819 -69.805207 159.369083 -8.929326 1.059080 4.048203 6.496927 0.717811 0.166464 0.292631 -0.006604 0.291531 0.512629 -0.011092 3.520685 6.179331 0.040959 0.561961 16.520162 -1.477695 1.551261 -5.292759 -3.049668 1.509485 6.834879 0.939173 -5.536378 -7.228421 -8.669866 -130.099523 -84.311217 155.362128 -1.316448 6.736163 -30.577908 -4.693437 7.363850 -2.279877 17.860934 -5.323003 2.248317 82.924029 -75.636412 -113.795200 -0.904081 7.795182 13.806405 -10.280722 -63.330197 5.050819 -35.014552 71.851519 -36.849034 -5.002848 -6.909159 0.000604 -0.324301 0.757076 -0.161936 2.298935 -65.399423 14.306271 40.503578 66.025792 33.598373 -18.410493 -9.322088 4.032588 -0.143069 -0.943341 -0.092255
-211.244773 57.612465 -69.799836 159.368983 -8.963938 1.054956 4.041705 6.501562 0.713971 0.162652 0.276782 -0.012283 0.294874 0.526026 -0.006376 3.513664 6.131551 0.011912 0.579766 16.466666 -1.510738 1.605108 -5.236621 -3.036136 1.514402 6.832003 0.954315 -5.567083 -7.260173 -8.688918 -130.475029 -84.314072 155.662930 -1.372465 6.784760 -30.534724 -4.696762 7.348574 -2.295372 17.903214 -5.320344 2.259269 83.059621 -75.630862 -113.900260 -0.894044 7.746617 13.849643 -10.338864 -63.298697 5.092334 -35.000973 71.859428 -36.840211 -4.993955 -6.909260 -0.009681 -0.327188 0.754752 -0.168731 2.253759 -65.358711 14.346929 40.493493 66.011637 33.590015 -18.410373 -9.312094 4.011886 -0.139688 -0.928253 -0.083376
-211.236901 57.609874 -69.793181 159.348045 -8.997813 1.052348 4.055254 6.506332 0.711374 0.166138 0.290886 -0.007418 0.283274 0.467003 -0.026504 3.525018 6.166091 0.021344 0.590609 16.424147 -1.538152 1.635167 -5.192757 -3.018389 1.506274 6.792208 0.948046 -5.590902 -7.285997 -8.702482 -130.403123 -84.326438 155.553876 -1.394151 6.801422 -30.525455 -4.713234 7.297165 -2.325296 17.938928 -5.302841 2.284963 83.265800 -75.618047 -114.074117 -0.886313 7.703223 13.893152 -10.382066 -63.267358 5.136788 -34.976226 71.860670 -36.814906 -4.981850 -6.901580 -0.027705 -0.324644 0.749728 -0.176343 2.191483 -65.321970 14.421724 40.508055 66.006924 33.599250 -18.417761 -9.288567 3.991927 -0.128902 -0.935642 -0.079123
-211.227111 57.606833 -69.782973 159.318845 -9.020911 1.031283 4.077395 6.473232 0.720936 0.165771 0.289727 -0.008020 0.279200 0.453793 -0.031572 3.530401 6.148676 0.002582 0.618253 16.454730 -1.523744 1.640514 -5.150102 -2.992697 1.500216 6.805702 0.968173 -5.600937 -7.287351 -8.703353 -130.375059 -84.334272 155.501134 -1.400616 6.802192 -30.530462 -4.715367 7.320721 -2.321161 17.958685 -5.269241 2.321028 83.609968 -75.588354 -114.385529 -0.883535 7.754206 13.896463 -10.457032 -63.242835 5.221277 -34.961934 71.854871 -36.771933 -4.985125 -6.889804 -0.083276 -0.292685 0.744697 -0.164184 2.133929 -65.299953 14.507259 40.502101 66.000576 33.603953 -18.412780 -9.274459 3.973574 -0.125005 -0.940258 -0.080359
-211.220754 57.604173 -69.775716 159.301007 -9.057982 1.030136 4.082449 6.458645 0.710082 0.154954 0.239304 -0.023672 0.296751 0.529288 -0.007983 3.528334 6.094069 -0.028517 0.643662 16.487650 -1.509099 1.680253 -5.131904 -2.997088 1.492667 6.821510 0.984579 -5.613419 -7.288348 -8.698843 -130.231696 -84.344649 155.351414 -1.413406 6.814697 -30.518680 -4.717229 7.345247 -2.315848 17.989420 -5.288679 2.316560 83.694648 -75.593688 -114.445934 -0.880728 7.797266 13.894060 -10.478979 -63.207752 5.245021 -34.933133 71.856382 -36.741875 -4.968256 -6.888613 -0.097892 -0.294624 0.749818 -0.163210 2.113981 -65.264577 14.535516 40.498844 65.989038 33.624413 -18.446666 -9.244885 3.944552 -0.106357 -0.948869 -0.075523
-211.215600 57.601752 -69.769852 159.288756 -9.103938 1.032802 4.082519 6.456171 0.696964 0.153600 0.240333 -0.023124 0.303844 0.551313 -0.001980 3.530771 6.088290 -0.033888 0.653688 16.477134 -1.518295 1.719584 -5.107310 -2.998482 1.479628 6.793842 0.974472 -5.613799 -7.259871 -8.686732 -130.089618 -84.351759 155.214402 -1.405334 6.805076 -30.531773 -4.724907 7.321930 -2.327520 18.009334 -5.302392 2.314390 83.772784 -75.598139 -114.490429 -0.876496 7.778607 13.919736 -10.464415 -63.163954 5.235396 -34.922662 71.856115 -36.730693 -4.952287 -6.893744 -0.089568 -0.305004 0.761597 -0.167421 2.111185 -65.219281 14.544390 40.492104 65.983045 33.625898 -18.440930 -9.220639 3.937422 -0.118486 -0.940661 -0.073743
-211.211531 57.598854 -69.760787 159.275955 -9.132270 1.029489 4.082929 6.437082 0.689380 0.151415 0.242440 -0.022729 0.294948 0.511894 -0.013926 3.552399 6.140548 -0.017919 0.660753 16.472284 -1.525234 1.760508 -5.078014 -2.999771 1.467280 6.772198 0.964769 -5.614670 -7.235958 -8.674994 -130.689804 -84.316140 155.760402 -1.423996 6.838961 -30.506612 -4.728472 7.314187 -2.331857 18.021034 -5.322169 2.303949 83.837760 -75.604077 -114.520680 -0.874801 7.764787 13.942427 -10.504074 -63.136461 5.268579 -34.884981 71.856113 -36.685592 -4.948833 -6.895273 -0.109741 -0.296635 0.768288 -0.170856 2.095644 -65.191846 14.566759 40.487970 65.971417 33.628677 -18.440949 -9.193365 3.928966 -0.123169 -0.943456 -0.074707
-211.211230 57.595456 -69.749126 159.254070 -9.140042 1.038039 4.089253 6.402034 0.671392 0.149887 0.242353 -0.023922 0.307017 0.544018 -0.004025 3.530015 6.053813 -0.060238 0.697238 16.539757 -1.497140 1.808786 -5.032830 -3.004258 1.489339 6.844960 0.999287 -5.644595 -7.258240 -8.672048 -130.600987 -84.314308 155.684707 -1.394243 6.793751 -30.524337 -4.709122 7.370248 -2.309270 18.041305 -5.324354 2.290991 83.896945 -75.612732 -114.558765 -0.871082 7.708739 13.980331 -10.543501 -63.138297 5.285028 -34.810808 71.866734 -36.591817 -4.933375 -6.881715 -0.145431 -0.293930 0.763039 -0.172831 2.072797 -65.182776 14.592823 40.520672 65.956807 33.651417 -18.432274 -9.159444 3.920922 -0.133847 -0.952165 -0.076730
-211.210437 57.593133 -69.744053 159.235606 -9.188196 1.052641 4.088959 6.409045 0.647810 0.149842 0.241857 -0.022185 0.307010 0.542027 -0.006637 3.529924 6.029620 -0.070740 0.720386 16.580984 -1.484052 1.846140 -4.976795 -3.000275 1.500458 6.889272 1.015571 -5.704945 -7.306403 -8.655983 -130.266838 -84.339572 155.406284 -1.400485 6.803191 -30.509179 -4.701408 7.386055 -2.300525 18.059236 -5.314403 2.280697 83.926873 -75.619603 -114.569643 -0.867354 7.694767 13.997454 -10.522065 -63.098567 5.255668 -34.770546 71.877590 -36.548467 -4.918766 -6.882636 -0.142374 -0.305918 0.766834 -0.183403 2.092170 -65.132300 14.581598 40.531250 65.949278 33.658586 -18.428127 -9.134287 3.920413 -0.134875 -0.965175 -0.079895
